<?xml version="1.0" encoding="UTF-8" standalone="no"?>
<!-- Generator: Adobe Illustrator 19.1.0, SVG Export Plug-In . SVG Version: 6.00 Build 0)  -->

<svg
   xmlns:dc="http://purl.org/dc/elements/1.1/"
   xmlns:cc="http://creativecommons.org/ns#"
   xmlns:rdf="http://www.w3.org/1999/02/22-rdf-syntax-ns#"
   xmlns:svg="http://www.w3.org/2000/svg"
   xmlns="http://www.w3.org/2000/svg"
   xmlns:sodipodi="http://sodipodi.sourceforge.net/DTD/sodipodi-0.dtd"
   xmlns:inkscape="http://www.inkscape.org/namespaces/inkscape"
   version="1.1"
   id="Layer_1"
   x="0px"
   y="0px"
   viewBox="0 0 115 40"
   xml:space="preserve"
   inkscape:version="0.48.4 r9939"
   width="100%"
   height="100%"
   sodipodi:docname="logo.svg"><metadata
   id="metadata39"><rdf:RDF><cc:Work
       rdf:about=""><dc:format>image/svg+xml</dc:format><dc:type
         rdf:resource="http://purl.org/dc/dcmitype/StillImage" /><dc:title></dc:title></cc:Work></rdf:RDF></metadata><defs
   id="defs37" /><sodipodi:namedview
   pagecolor="#ffffff"
   bordercolor="#666666"
   borderopacity="1"
   objecttolerance="10"
   gridtolerance="10"
   guidetolerance="10"
   inkscape:pageopacity="0"
   inkscape:pageshadow="2"
   inkscape:window-width="1366"
   inkscape:window-height="705"
   id="namedview35"
   showgrid="false"
   inkscape:zoom="6.1010101"
   inkscape:cx="45.495301"
   inkscape:cy="5.8457398"
   inkscape:window-x="-8"
   inkscape:window-y="-8"
   inkscape:window-maximized="1"
   inkscape:current-layer="Layer_1" />
<style
   type="text/css"
   id="style3">
	.st0{fill:#115A81;}
	.st1{fill:#363532;}
</style>
<g
   id="g5"
   transform="matrix(0.23369614,0,0,0.23369614,-36.272054,-51.339596)"
   style="fill:#105982">
	<path
   class="st0"
   d="m 260.2,322.9 h -12.5 c -1,0 -1.7,-0.8 -1.7,-1.9 v -65.5 c 0,-1 0.7,-1.8 1.7,-1.8 h 12.5 c 1,0 1.8,0.7 1.8,1.8 V 321 c -0.1,1 -0.8,1.9 -1.8,1.9 z"
   id="path7"
   inkscape:connector-curvature="0"
   style="fill:#105982" />
	<path
   class="st0"
   d="m 314.4,322.9 h -11.3 c -1,0 -1.9,-0.9 -1.9,-2 v -31 c 0,-6.5 -1.2,-8.7 -6.9,-8.7 -2.7,0 -5.6,1.3 -8.7,3 v 36.6 c 0,1 -0.8,2 -1.9,2 h -11.3 c -1,0 -2,-0.9 -2,-2 v -49.5 c 0,-1 0.8,-1.9 1.9,-1.9 h 10.4 c 1,0 1.9,0.8 1.9,1.9 v 2.2 c 5.1,-3.6 9.2,-4.8 15.2,-4.8 13.5,0 16.5,9.4 16.5,21.1 v 31 c 0,1.1 -0.9,2.1 -1.9,2.1 z"
   id="path9"
   inkscape:connector-curvature="0"
   style="fill:#105982" />
	<path
   class="st0"
   d="m 353,323 c -2.8,0.5 -4.7,0.7 -7.3,0.7 -10.2,0 -15.6,-2.7 -15.6,-15.9 v -27 l -7.4,-1.2 c -1,-0.2 -2,-0.9 -2,-2 v -6.1 c 0,-1 0.9,-2 2,-2 h 7.4 v -7.6 c 0,-1 0.8,-1.7 1.9,-1.9 l 11.3,-2 c 0.1,0 0.2,0 0.3,0 0.9,0 1.7,0.7 1.7,1.6 v 9.9 h 7.6 c 1,0 1.9,0.8 1.9,1.9 v 7.5 c 0,1 -0.8,1.9 -1.9,1.9 h -7.6 v 27.1 c 0,3.7 0.3,4.4 3.1,4.4 h 4.6 c 1.2,0 2,0.6 2,1.6 v 7.3 c -0.2,0.8 -0.9,1.6 -2,1.8 z"
   id="path11"
   inkscape:connector-curvature="0"
   style="fill:#105982" />
	<path
   class="st0"
   d="m 402.9,300.9 h -29.7 v 0.2 c 0,5.3 2.2,10.1 9.6,10.1 5.9,0 14.1,-0.5 17.9,-0.8 0.1,0 0.2,0 0.3,0 1,0 1.8,0.5 1.8,1.5 v 7.1 c 0,1.5 -0.4,2.1 -2,2.5 -6,1.5 -11,2.2 -19.1,2.2 -11.3,0 -23.3,-6 -23.3,-23.9 v -6.5 c 0,-15 8.7,-24.5 23.5,-24.5 15.3,0 23,10.4 23,24.5 v 5.4 c 0,1.4 -0.8,2.2 -2,2.2 z m -12.7,-9.7 c 0,-6.9 -3.2,-10.3 -8.4,-10.3 -5.1,0 -8.6,3.5 -8.6,10.3 v 0.4 h 16.9 v -0.4 z"
   id="path13"
   inkscape:connector-curvature="0"
   style="fill:#105982" />
	<path
   class="st0"
   d="m 439,281.3 h -0.7 c -4.6,0 -8.6,1.4 -12,3.3 V 321 c 0,1 -0.8,2 -1.9,2 h -11.3 c -1,0 -2,-0.9 -2,-2 v -49.5 c 0,-1 0.8,-1.9 1.9,-1.9 h 11.1 c 1,0 1.9,0.8 1.9,1.9 v 1.9 c 3.4,-2.9 8.1,-4.5 12.6,-4.5 1,0 1.9,0.8 1.9,1.9 v 8.8 c -0.1,0.8 -0.6,1.7 -1.5,1.7 z"
   id="path15"
   inkscape:connector-curvature="0"
   style="fill:#105982" />
	<path
   class="st0"
   d="m 491,279.3 -2.9,0.9 c 1.1,1.7 2,4.7 2,6.9 v 0.7 c 0,12.1 -8.5,17.4 -23,17.4 -4.4,0 -7.8,-0.7 -9.7,-1.4 -1,0.7 -1.3,1.3 -1.3,2.1 0,1.5 0.6,2.1 2.8,2.6 l 10.5,2.3 c 16.2,3.5 21.8,6 21.8,15 v 0.7 c 0,10.2 -8,15.2 -24.4,15.2 -15.4,0 -23.6,-5.4 -23.6,-15.2 v -0.7 c 0,-3.8 1.6,-7.3 5.6,-10.4 -3.3,-1.9 -4.7,-5.6 -4.7,-8.7 0,-3.4 1.8,-6 4.1,-7.9 -3,-2.6 -4.3,-7.3 -4.3,-11.1 V 287 c 0,-10.5 7,-17.6 23.3,-17.6 h 23.2 c 1.3,0 2.3,1.1 2.3,2.4 v 5.3 c 0,1.5 -0.6,1.9 -1.7,2.2 z m -15.1,46.6 c 0,-1.8 -1.2,-3 -9.6,-4.8 l -6.9,-1.5 c -1.1,1.6 -1.9,3.1 -1.9,6.3 v 0.7 c 0,3.2 2.1,4.7 9.3,4.7 7.6,0 9,-2 9,-4.7 v -0.7 z m -0.4,-38.7 c 0,-3.8 -1.7,-6.7 -8.3,-6.7 -6.6,0 -8.5,2.9 -8.5,6.7 v 0.7 c 0,3.2 1.4,6.5 8.5,6.5 6.5,0 8.3,-2.5 8.3,-6.5 v -0.7 z"
   id="path17"
   inkscape:connector-curvature="0"
   style="fill:#105982" />
	<path
   class="st0"
   d="m 536.1,322.9 h -10.4 c -1,0 -1.9,-0.8 -1.9,-1.9 v -1.5 c -3.6,2.6 -7.3,4.2 -12.9,4.2 -8.1,0 -15.9,-3.9 -15.9,-16 v -0.8 c 0,-10.9 7,-15.7 22.9,-15.7 h 5 v -3.3 c 0,-5.3 -2.6,-6.4 -7,-6.4 -6,0 -12.6,0.4 -15.4,0.7 H 500 c -0.9,0 -1.7,-0.5 -1.7,-1.7 V 273 c 0,-1 0.7,-1.8 1.8,-2 3.4,-0.8 10,-2 16.1,-2 13.4,0 21.8,5.4 21.8,19 v 33 c 0,1 -0.9,1.9 -1.9,1.9 z m -12.9,-22.8 h -5.3 c -6.5,0 -8.2,2.2 -8.2,6.8 v 0.8 c 0,3.9 2,4.7 5.9,4.7 2.8,0 5.4,-0.9 7.6,-2 v -10.3 z"
   id="path19"
   inkscape:connector-curvature="0"
   style="fill:#105982" />
	<path
   class="st0"
   d="m 587.2,321.3 c -5.3,1.3 -12.7,2.4 -19.8,2.4 -15.1,0 -23.3,-8.7 -23.3,-23.8 v -7.3 c 0,-14.6 7.6,-23.8 23.3,-23.8 1.9,0 4.9,0.3 7.6,0.7 v -16.1 c 0,-1 0.8,-1.9 1.9,-1.9 h 11.3 c 1,0 2,0.8 2,1.9 v 65.2 c -0.1,1.5 -0.5,2.1 -3,2.7 z M 575,281.8 c -2.2,-0.3 -5.4,-0.5 -7.6,-0.5 -6.6,0 -8.3,4.8 -8.3,11.3 v 7.3 c 0,6.6 1.7,11.4 8.3,11.4 3.1,0 5.9,-0.3 7.6,-0.6 v -28.9 z"
   id="path21"
   inkscape:connector-curvature="0"
   style="fill:#105982" />
	<path
   class="st0"
   d="m 619.6,323.7 c -15.1,0 -23.3,-9.4 -23.3,-24.2 V 293 c 0,-14.8 8.3,-24.2 23.3,-24.2 15.1,0 23.3,9.4 23.3,24.2 v 6.5 c 0,14.8 -8.2,24.2 -23.3,24.2 z m 8.3,-30.7 c 0,-7.5 -2.9,-11.3 -8.3,-11.3 -5.4,0 -8.4,3.8 -8.4,11.3 v 6.5 c 0,7.5 3,11.4 8.4,11.4 5.4,0 8.3,-3.9 8.3,-11.4 V 293 z"
   id="path23"
   inkscape:connector-curvature="0"
   style="fill:#105982" />
</g>
<g
   id="g25"
   transform="matrix(0.23369614,0,0,0.23369614,-36.272054,-51.339596)"
   style="fill:#105982">
	<g
   id="g27"
   style="fill:#105982">
		<path
   class="st1"
   d="m 171.4,310.3 c 0.1,-36.3 17.9,-67.8 46.6,-78.6 -2.8,0.6 -5.6,1.3 -8.3,2.2 -38.6,12.8 -59.5,54.5 -46.6,93.1 3.3,9.8 8.4,18.5 14.9,25.8 -1.4,-2.8 -2.7,-5.8 -3.7,-8.9 -3.8,-11.2 -4.6,-22.7 -2.9,-33.6 z"
   id="path29"
   inkscape:connector-curvature="0"
   style="fill:#000000" />
		<path
   class="st0"
   d="m 279.4,362.1 c -33.4,4 -66.1,-15.9 -77.1,-49 -10.5,-31.5 1.9,-65 28.1,-82.7 -38.6,12.8 -59.5,54.5 -46.6,93.1 5.2,15.5 15,28.1 27.4,36.8 21.7,12.4 47.3,12.3 68.2,1.8 z"
   id="path31"
   inkscape:connector-curvature="0"
   style="fill:#105982" />
		<path
   class="st1"
   d="m 264.2,383.7 c -4.6,0.8 -9.4,1.3 -14.3,1.2 -38.4,-0.7 -71.2,-30.8 -73.4,-67.3 -0.4,-6.5 0.3,-12.7 1.8,-18.5 -0.4,3.3 -0.5,6.6 -0.3,10.1 2.1,35.8 34.4,65.4 72.1,66.1 3.8,0.1 7.6,-0.2 11.2,-0.7 0.8,3.1 1.8,6.1 2.9,9.1 z"
   id="path33"
   inkscape:connector-curvature="0"
   style="fill:#000000" />
	</g>
</g>
</svg>